<svg xmlns="http://www.w3.org/2000/svg" width="24" height="24" viewBox="0 0 24 24" aria-hidden="true" focusable="false" class="css-p3qwn0 e1o0hyrj0"><g fill-rule="evenodd"><path d="M22.5 7.5V3.75a.75.75 0 0 0-.75-.75H18V1.5a.75.75 0 0 0-1.5 0V3h-9V1.5a.75.75 0 0 0-1.5 0V3H2.25a.75.75 0 0 0-.75.75V7.5h21Z"></path><path d="M17.25 14.5h-1.5a.75.75 0 0 1 0-1.5h1.5a.75.75 0 0 1 0 1.5Zm0 3.5h-1.5a.75.75 0 0 1 0-1.5h1.5a.75.75 0 0 1 0 1.5Zm-4.5-3.5h-1.5a.75.75 0 0 1 0-1.5h1.5a.75.75 0 0 1 0 1.5Zm0 3.5h-1.5a.75.75 0 0 1 0-1.5h1.5a.75.75 0 0 1 0 1.5Zm-4.5-3.5h-1.5a.75.75 0 0 1 0-1.5h1.5a.75.75 0 0 1 0 1.5Zm0 3.5h-1.5a.75.75 0 0 1 0-1.5h1.5a.75.75 0 0 1 0 1.5ZM1.5 9v12.75c0 .414.336.75.75.75h19.5a.75.75 0 0 0 .75-.75V9h-21Z"></path></g></svg>