<svg  xmlns="http://www.w3.org/2000/svg" fill="#929292" width="24" height="24" viewBox="0 0 24 24" aria-hidden="true" focusable="false" class="css-p3qwn0 elml5ar0"><g fill-rule="evenodd"><path d="M16.91 1.5C19.181 1.5 21 4.068 21 6.616c0 2.083-1.32 3.496-3.273 3.802V21.59a.91.91 0 1 1-1.819 0V10.418c-1.952-.306-3.09-1.719-3.09-3.802 0-2.548 1.819-5.116 4.091-5.116Zm0 1.467c-1.174 0-2.455 1.81-2.455 3.65 0 1.546.96 2.395 2.454 2.395 1.494 0 2.455-.849 2.455-2.396 0-1.839-1.282-3.649-2.455-3.649Z"></path><path d="M7.09 21.766c0 .406-.365.734-.817.734-.452 0-.818-.328-.818-.734V9.728C4.095 9.728 3 8.723 3 7.492V2.234c0-.406.366-.734.818-.734.452 0 .818.328.818.734v5.258c0 .428.371.769.819.769V2.234c0-.406.366-.734.818-.734.452 0 .818.328.818.734V8.26c.447 0 .818-.34.818-.769V2.234c0-.406.366-.734.818-.734.452 0 .818.328.818.734v5.258c0 1.231-1.094 2.236-2.454 2.236v12.038Z"></path></g></svg>