<svg fill="#589442" xmlns="http://www.w3.org/2000/svg" width="24" height="24" viewBox="0 0 24 24" aria-hidden="true" focusable="false" class="_2D0CL css-p3qwn0 ez1w57s0">
    <g fill-rule="evenodd">
        <path d="M17.25.75a.75.75 0 01.75.75V3h3.75a.75.75 0 01.75.75v18a.75.75 0 01-.75.75H2.25a.75.75 0 01-.75-.75v-18A.75.75 0 012.25 3H6V1.5a.75.75 0 011.5 0V3h9V1.5a.75.75 0 01.75-.75zM21 9H3v12h18V9zM6 4.5H3v3h18v-3h-3v.75a.75.75 0 01-1.5 0V4.5h-9v.75a.75.75 0 01-1.5 0V4.5z"></path>
        <path d="M10.313 18.813a.753.753 0 01-.531-.22l-3.188-3.187a.752.752 0 010-1.062.752.752 0 011.062 0l2.657 2.658 6.031-6.033a.752.752 0 011.062 0 .752.752 0 010 1.062l-6.562 6.563a.753.753 0 01-.531.219"></path>
    </g>
</svg>