<svg xmlns="http://www.w3.org/2000/svg" fill="#929292"  width="24" height="24" viewBox="0 0 24 24" aria-hidden="true" focusable="false" class="css-p3qwn0 e3pjkim0"><g fill-rule="evenodd"><path d="M12 1.5a6.75 6.75 0 0 1 6.75 6.75c0 .82-.146 1.62-.413 2.324-.775 2.588-2.671 6.43-5.69 11.557a.75.75 0 0 1-1.293 0c-3.02-5.127-4.916-8.97-5.675-11.51A6.75 6.75 0 0 1 12 1.5ZM12 3a5.25 5.25 0 0 0-5.25 5.25c0 .639.114 1.26.35 1.892.673 2.249 2.294 5.605 4.856 10.045l.043.073.43-.746c2.229-3.912 3.69-6.942 4.389-9.101l.099-.318A5.25 5.25 0 0 0 12 3Z"></path><path d="M12 5.25a3 3 0 1 1 0 6 3 3 0 0 1 0-6Zm0 1.5a1.5 1.5 0 1 0 0 3 1.5 1.5 0 0 0 0-3Z"></path></g></svg>